<?xml version="1.0" encoding="UTF-8" standalone="no"?>
<svg
   xmlns:dc="http://purl.org/dc/elements/1.1/"
   xmlns:cc="http://creativecommons.org/ns#"
   xmlns:rdf="http://www.w3.org/1999/02/22-rdf-syntax-ns#"
   xmlns:svg="http://www.w3.org/2000/svg"
   xmlns="http://www.w3.org/2000/svg"
   xmlns:sodipodi="http://sodipodi.sourceforge.net/DTD/sodipodi-0.dtd"
   xmlns:inkscape="http://www.inkscape.org/namespaces/inkscape"
   version="1.1"
   preserveAspectRatio="xMinYMin meet"
   x="0px"
   y="0px"
   width="19px"
   height="24px"
   viewBox="0 0 19 24"
   id="svg1032"
   sodipodi:docname="seal.svg"
   inkscape:version="1.0rc1 (09960d6, 2020-04-09)">
  <sodipodi:namedview
     inkscape:current-layer="svg1032"
     inkscape:window-maximized="0"
     inkscape:window-y="0"
     inkscape:window-x="0"
     inkscape:cy="13.821871"
     inkscape:cx="2.1763924"
     inkscape:zoom="19.751305"
     showgrid="true"
     id="namedview36"
     inkscape:window-height="900"
     inkscape:window-width="1440"
     inkscape:pageshadow="2"
     inkscape:pageopacity="0"
     guidetolerance="10"
     gridtolerance="10"
     objecttolerance="10"
     borderopacity="1"
     bordercolor="#666666"
     pagecolor="#ffffff">
    <inkscape:grid
       id="grid38"
       type="xygrid" />
  </sodipodi:namedview>
  <metadata
     id="metadata1038">
    <rdf:RDF>
      <cc:Work
         rdf:about="">
        <dc:format>image/svg+xml</dc:format>
        <dc:type
           rdf:resource="http://purl.org/dc/dcmitype/StillImage" />
      </cc:Work>
    </rdf:RDF>
  </metadata>
  <defs
     id="defs1036" />
  <path
     style="fill:#ff0000"
     d="M 0 0 L 0 24 L 19 24 L 19 0 L 0 0 z M 1 1 L 18 1 L 18 23 L 1 23 L 1 1 z "
     id="path1012" />
  <path
     d="M2 2h7v3h-7v-1h6v-1h-6v-1z"
     fill="rgb(255,0,0)"
     id="path1016" />
  <path
     d="M10 2h7v1h-6v1h6v1h-7v-3z"
     fill="rgb(255,0,0)"
     id="path1018" />
  <path
     d="M2 6h15v3h-6v-1h5v-1h-6v2h-1v-2h-6v1h5v1h-6v-3z"
     fill="rgb(255,0,0)"
     id="path1020" />
  <path
     style="fill:#ff0000"
     d="M2 10h15v7h-1v-6h-13v6h-1v-7z"
     fill="rgb(255,0,0)"
     id="path1022" />
  <path
     d="M4 12h11v1h-5v2h-1v-2h-5v-1z"
     fill="rgb(255,0,0)"
     id="path1024" />
  <path
     d="M4 14h4v1h-3v1h9v-1h-3v-1h4v3h-11v-3z"
     fill="rgb(255,0,0)"
     id="path1026" />
  <path
     style="fill:#ff0000"
     d="M 2 18 L 2 22 L 3 22 L 3 21 L 13 21 L 13 22 L 14 22 L 14 21 L 17 21 L 17 18 L 2 18 z M 3 19 L 16 19 L 16 20 L 3 20 L 3 19 z "
     id="path1028" />
</svg>
